<svg width="18" height="18" viewBox="0 0 18 18" fill="none" xmlns="http://www.w3.org/2000/svg">
<circle cx="9" cy="9" r="9" fill="white"/>
<g clip-path="url(#clip0_562_639)">
<path d="M8.99942 3.27271C9.36146 3.27271 9.65396 3.59263 9.65396 3.98861V4.7873C9.68669 4.79177 9.71737 4.79625 9.7501 4.80296C9.75828 4.8052 9.76442 4.8052 9.7726 4.80744L10.7544 5.00431C11.1103 5.0759 11.3456 5.44952 11.2801 5.83655C11.2146 6.22359 10.8731 6.48311 10.5192 6.41152L9.5476 6.21688C8.90737 6.11397 8.34283 6.18332 7.94601 6.35559C7.54919 6.52785 7.38964 6.765 7.35283 6.98425C7.31192 7.22363 7.3426 7.35786 7.37737 7.44064C7.41419 7.52789 7.48987 7.62633 7.63919 7.73595C7.9726 7.97533 8.48396 8.13194 9.14669 8.32434L9.20601 8.34224C9.79101 8.51227 10.5069 8.71809 11.0387 9.09842C11.3292 9.30648 11.6033 9.58837 11.7731 9.98212C11.9469 10.3826 11.9837 10.83 11.904 11.3065C11.7628 12.1567 11.2269 12.7249 10.5621 13.0225C10.2819 13.1478 9.97714 13.2283 9.65396 13.2686V14.0113C9.65396 14.4073 9.36146 14.7273 8.99942 14.7273C8.63737 14.7273 8.34487 14.4073 8.34487 14.0113V13.2306C8.33669 13.2283 8.32646 13.2283 8.31828 13.2261H8.31419C7.8151 13.1411 6.99487 12.9062 6.4426 12.6377C6.11328 12.4766 5.96396 12.0538 6.11124 11.6936C6.25851 11.3334 6.6451 11.1701 6.97442 11.3312C7.40192 11.5392 8.10555 11.745 8.5126 11.8144C9.1651 11.9195 9.70305 11.8591 10.0671 11.6958C10.4128 11.5415 10.5703 11.3177 10.6153 11.0493C10.6542 10.8121 10.6235 10.6757 10.5887 10.5929C10.5499 10.5034 10.4742 10.4049 10.3228 10.2953C9.98737 10.0559 9.47396 9.89934 8.80919 9.70694L8.75192 9.69128C8.16896 9.52125 7.45305 9.31319 6.92124 8.93286C6.63078 8.7248 6.35874 8.44067 6.18896 8.04692C6.01714 7.64646 5.98237 7.19902 6.06419 6.72249C6.21146 5.86788 6.79646 5.31305 7.46124 5.02445C7.73328 4.90587 8.03192 4.82533 8.34487 4.77835V3.98861C8.34487 3.59263 8.63737 3.27271 8.99942 3.27271Z" fill="#434371"/>
</g>
<defs>
<clipPath id="clip0_562_639">
<rect width="6.54545" height="11.4545" fill="white" transform="translate(5.72656 3.27271)"/>
</clipPath>
</defs>
</svg>
