<svg width="19" height="18" viewBox="0 0 19 18" fill="none" xmlns="http://www.w3.org/2000/svg">
<ellipse cx="9.03614" cy="9" rx="9.03614" ry="9" fill="white"/>
<g clip-path="url(#clip0_562_644)">
<path d="M4.98267 5.58182C5.03273 5.48434 5.14286 5.42841 5.25465 5.44279L9.3394 5.93178L13.4242 5.44279C13.5359 5.43001 13.6461 5.48594 13.6961 5.58182L14.3919 6.91456C14.5421 7.2006 14.3819 7.54737 14.0616 7.63526L11.3351 8.38153C11.1031 8.44545 10.8545 8.35117 10.731 8.15302L9.3394 5.93178L7.94778 8.15302C7.82431 8.35117 7.57569 8.44545 7.34375 8.38153L4.61892 7.63526C4.29687 7.54737 4.13836 7.2006 4.28853 6.91456L4.98267 5.58182ZM9.35776 6.95451L10.2738 8.41509C10.5224 8.8114 11.018 8.99996 11.4836 8.87212L13.611 8.29045V10.9591C13.611 11.3107 13.3607 11.6175 13.0037 11.7038L9.59804 12.5188C9.42784 12.5603 9.2493 12.5603 9.08077 12.5188L5.67514 11.7038C5.31806 11.6159 5.06777 11.3091 5.06777 10.9575V8.28885L7.19691 8.87212C7.66078 8.99996 8.15803 8.8114 8.40665 8.41509L9.32105 6.95451H9.35776Z" fill="#434371"/>
</g>
<defs>
<clipPath id="clip0_562_644">
<rect width="10.6791" height="8.18182" fill="white" transform="translate(4 4.90906)"/>
</clipPath>
</defs>
</svg>
