<svg width="19" height="18" viewBox="0 0 19 18" fill="none" xmlns="http://www.w3.org/2000/svg">
<ellipse cx="9.14064" cy="9" rx="9.03614" ry="9" fill="white"/>
<g clip-path="url(#clip0_562_653)">
<path d="M13.139 5.56419C12.9821 5.41397 12.9821 5.17108 13.139 5.02246C13.2958 4.87385 13.5494 4.87225 13.7046 5.02246L14.7725 6.04519C14.8476 6.1171 14.8893 6.21458 14.8893 6.31685C14.8893 6.41912 14.8476 6.5166 14.7725 6.58851L13.7046 7.61124C13.5478 7.76145 13.2941 7.76145 13.139 7.61124C12.9838 7.46103 12.9821 7.21813 13.139 7.06951L13.5227 6.70197L10.6194 6.69878C10.3974 6.69878 10.2189 6.52779 10.2189 6.31525C10.2189 6.10272 10.3974 5.93173 10.6194 5.93173H13.5244L13.139 5.56419ZM5.96395 10.9335L5.58017 11.301H8.48355C8.70547 11.301 8.88401 11.472 8.88401 11.6846C8.88401 11.8971 8.70547 12.0681 8.48355 12.0681H5.5785L5.96228 12.4356C6.11913 12.5859 6.11913 12.8287 5.96228 12.9774C5.80543 13.126 5.5518 13.1276 5.39662 12.9774L4.32872 11.9562C4.25363 11.8843 4.21191 11.7868 4.21191 11.6846C4.21191 11.5823 4.25363 11.4848 4.32872 11.4129L5.39662 10.3902C5.55347 10.24 5.8071 10.24 5.96228 10.3902C6.11746 10.5404 6.11913 10.7833 5.96228 10.9319L5.96395 10.9335ZM5.81378 5.93173H9.85013C9.7884 6.04679 9.75169 6.17623 9.75169 6.31525C9.75169 6.77388 10.1405 7.14622 10.6194 7.14622H12.5783C12.5116 7.41788 12.5883 7.71351 12.8086 7.92605C13.1473 8.25045 13.6963 8.25045 14.035 7.92605L14.357 7.61763V11.0454C14.357 11.6095 13.8781 12.0681 13.2891 12.0681H9.25277C9.31451 11.953 9.35122 11.8236 9.35122 11.6846C9.35122 11.2259 8.96244 10.8536 8.48355 10.8536H6.5246C6.59135 10.5819 6.51459 10.2863 6.29433 10.0738C5.95561 9.74938 5.40664 9.74938 5.06791 10.0738L4.74587 10.3822V6.95446C4.74587 6.39036 5.22476 5.93173 5.81378 5.93173ZM6.88168 6.95446H5.81378V7.97719C6.40279 7.97719 6.88168 7.51856 6.88168 6.95446ZM13.2891 10.0226C12.7001 10.0226 12.2212 10.4813 12.2212 11.0454H13.2891V10.0226ZM9.55145 10.534C9.97629 10.534 10.3837 10.3724 10.6841 10.0847C10.9845 9.79698 11.1533 9.40678 11.1533 8.99991C11.1533 8.59305 10.9845 8.20284 10.6841 7.91515C10.3837 7.62745 9.97629 7.46582 9.55145 7.46582C9.12661 7.46582 8.71917 7.62745 8.41877 7.91515C8.11836 8.20284 7.94959 8.59305 7.94959 8.99991C7.94959 9.40678 8.11836 9.79698 8.41877 10.0847C8.71917 10.3724 9.12661 10.534 9.55145 10.534Z" fill="#434371"/>
</g>
<defs>
<clipPath id="clip0_562_653">
<rect width="10.6791" height="8.18182" fill="white" transform="translate(4.21191 4.90906)"/>
</clipPath>
</defs>
</svg>
